# Blender v2.79 (sub 0) OBJ File: 'balandongan.blend'
# www.blender.org
mtllib balandongan.mtl
o Cube.001
v -2.183458 -0.328208 0.688005
v -2.183458 -0.086237 0.688005
v -2.183458 -0.328208 -0.741157
v -2.183458 -0.086237 -0.566647
v 0.431605 -0.328208 0.688005
v 0.431605 -0.086237 0.688005
v 0.431605 -0.328208 -0.741157
v 0.431605 -0.086237 -0.566647
v -0.875927 -0.328208 -0.741157
v -0.875927 -0.086237 -0.566647
v -0.875927 -0.328208 0.688005
v -0.875927 -0.086237 0.688005
v -1.864526 -0.086237 0.381971
v -1.864526 -0.086237 -0.260613
v -1.194859 -0.086237 0.381971
v -1.194859 -0.086237 -0.260613
v -1.743195 -0.024823 0.265547
v -1.743195 -0.024823 -0.144189
v -1.316190 -0.024823 0.265547
v -1.316190 -0.024823 -0.144189
v -1.704387 -0.072590 0.228308
v -1.704387 -0.072590 -0.106950
v -1.354998 -0.072590 0.228308
v -1.354998 -0.072590 -0.106950
v -0.576705 -0.086237 -0.279527
v 0.132384 -0.086237 -0.279527
v 0.132384 -0.086237 0.400885
v -0.576705 -0.086237 0.400885
v -0.495917 -0.038302 -0.202006
v 0.051595 -0.038302 -0.202006
v 0.051595 -0.038302 0.323363
v -0.495917 -0.038302 0.323363
v -0.495917 -0.113629 -0.202006
v 0.051595 -0.113629 -0.202006
v 0.051595 -0.113629 0.323363
v -0.495917 -0.113629 0.323363
vn -1.0000 -0.0000 0.0000
vn 0.0000 0.5849 -0.8111
vn 1.0000 0.0000 0.0000
vn 0.0000 0.0000 1.0000
vn 0.0000 -1.0000 0.0000
vn 0.0000 1.0000 0.0000
vn 0.4516 0.8922 0.0000
vn -0.7761 0.6306 0.0000
vn -0.4516 0.8922 0.0000
vn 0.0000 0.8845 0.4666
vn 0.0000 0.8845 -0.4666
vn 0.7761 0.6306 0.0000
vn 0.0000 0.6148 -0.7887
vn 0.0000 0.6148 0.7887
vn -0.5103 0.8600 0.0000
vn 0.0000 0.8505 -0.5259
vn 0.5103 0.8600 0.0000
vn 0.0000 0.8505 0.5259
vn 0.0000 0.0000 -1.0000
usemtl Material.001
s off
f 1//1 2//1 4//1 3//1
f 9//2 10//2 8//2 7//2
f 7//3 8//3 6//3 5//3
f 11//4 12//4 2//4 1//4
f 9//5 7//5 5//5 11//5
f 2//6 12//6 15//6 13//6
f 12//6 6//6 27//6 28//6
f 3//5 9//5 11//5 1//5
f 5//4 6//4 12//4 11//4
f 3//2 4//2 10//2 9//2
f 15//7 16//7 20//7 19//7
f 12//6 10//6 16//6 15//6
f 10//6 4//6 14//6 16//6
f 4//6 2//6 13//6 14//6
f 19//8 20//8 24//8 23//8
f 14//9 13//9 17//9 18//9
f 13//10 15//10 19//10 17//10
f 16//11 14//11 18//11 20//11
f 24//6 22//6 21//6 23//6
f 18//12 17//12 21//12 22//12
f 17//13 19//13 23//13 21//13
f 20//14 18//14 22//14 24//14
f 25//15 28//15 32//15 29//15
f 10//6 12//6 28//6 25//6
f 6//6 8//6 26//6 27//6
f 8//6 10//6 25//6 26//6
f 29//3 32//3 36//3 33//3
f 26//16 25//16 29//16 30//16
f 27//17 26//17 30//17 31//17
f 28//18 27//18 31//18 32//18
f 34//6 33//6 36//6 35//6
f 30//4 29//4 33//4 34//4
f 31//1 30//1 34//1 35//1
f 32//19 31//19 35//19 36//19
o Plane
v -11.592929 -2.026962 11.592929
v 11.592929 -2.026962 11.592929
v -11.592929 -2.026962 -11.592929
v 11.592929 -2.026962 -11.592929
vn 0.0000 1.0000 0.0000
usemtl Material.002
s off
f 37//20 38//20 40//20 39//20
o balandongan_Cube
v 2.682585 -1.934845 -1.107750
v 2.682585 -1.934845 1.107750
v -2.682585 -1.934845 1.107750
v -2.682584 -1.934845 -1.107751
v 2.682586 1.934845 -1.107750
v 2.682583 1.934845 1.107751
v -2.682586 1.934845 1.107750
v -2.682585 1.934845 -1.107750
v 2.682586 -0.448062 -1.107750
v 2.682584 -0.448062 1.107750
v -2.682586 -0.448062 1.107750
v -2.682584 -0.448062 -1.107750
v 0.886840 -1.934845 -1.107750
v 0.886839 -1.934845 1.107750
v 0.886840 1.934845 -1.107750
v 0.886838 1.934845 1.107750
v 0.886840 -0.448062 -1.107750
v 0.886838 -0.448062 1.107750
v 2.682586 -0.626476 -1.107750
v 2.682584 -0.626476 1.107750
v -2.682586 -0.626476 1.107750
v -2.682584 -0.626476 -1.107750
v 0.886839 -0.626476 1.107750
v 0.886840 -0.626476 -1.107750
v 2.682586 1.673886 -1.107750
v 2.682583 1.673886 1.107751
v -2.682586 1.673886 1.107750
v -2.682585 1.673886 -1.107750
v 0.886840 1.673886 -1.107750
v 0.886838 1.673886 1.107750
v 2.473626 -1.934845 -1.107750
v 2.473626 -1.934845 1.107750
v 2.473627 1.934845 -1.107750
v 2.473624 1.934845 1.107751
v 2.473626 -0.448062 -1.107750
v 2.473625 -0.448062 1.107750
v 2.473626 -0.626476 -1.107750
v 2.473625 -0.626476 1.107750
v 2.473624 1.673886 1.107751
v 2.473627 1.673886 -1.107750
v -2.486876 -1.934845 -1.107751
v -2.486877 -1.934845 1.107750
v -2.486876 1.934845 -1.107750
v -2.486877 1.934845 1.107750
v -2.486876 -0.448062 -1.107750
v -2.486877 -0.448062 1.107750
v -2.486877 -0.626476 1.107750
v -2.486876 -0.626476 -1.107750
v -2.486876 1.673886 -1.107750
v -2.486878 1.673886 1.107750
v 0.886839 -1.804008 1.107750
v 2.682585 -1.804008 -1.107750
v 2.682585 -1.804008 1.107750
v -2.682585 -1.804008 1.107750
v -2.682584 -1.804008 -1.107751
v 0.886840 -1.804008 -1.107750
v 2.473625 -1.804008 1.107750
v 2.473626 -1.804008 -1.107750
v -2.486877 -1.804008 1.107750
v -2.486876 -1.804008 -1.107751
v 2.473626 -0.448062 -1.107750
v 0.886840 -0.448062 -1.107750
v 0.886840 1.673886 -1.107750
v 2.473627 1.673886 -1.107750
v -2.486876 -0.448062 -1.107750
v -2.486876 1.673886 -1.107750
v 0.812004 -0.400993 -1.107750
v 0.812004 1.626817 -1.107750
v -2.412040 -0.400993 -1.107750
v -2.412040 1.626817 -1.107750
v 0.812004 -0.400993 0.952957
v 0.812004 1.626817 0.952957
v -2.412040 -0.400993 0.952956
v -2.412040 1.626817 0.952956
v 2.425732 -0.384015 -1.107750
v 0.934734 -0.384015 -1.107750
v 0.934734 1.609839 -1.107750
v 2.425733 1.609839 -1.107750
v 2.425732 -0.384015 0.965299
v 0.934734 -0.384015 0.965299
v 0.934734 1.609839 0.965299
v 2.425733 1.609839 0.965299
v 0.781475 1.607617 1.077211
v 0.781475 -0.381793 1.077211
v -2.381514 -0.381793 1.077210
v -2.381515 1.607617 1.077210
v 2.420061 -0.376433 1.082850
v 0.940403 -0.376433 1.082850
v 0.940402 1.602257 1.082850
v 2.420060 1.602257 1.082850
v 2.645872 -0.373206 -1.029593
v 2.645871 -0.373206 1.029594
v 2.645873 1.599030 -1.029593
v 2.645870 1.599030 1.029595
v -2.660158 -0.399814 1.057374
v -2.660157 -0.399814 -1.057374
v -2.660159 1.625638 1.057374
v -2.660158 1.625638 -1.057374
v 0.743651 2.033985 -1.013719
v 0.743649 2.033985 1.013719
v -2.343688 2.033985 -1.013719
v -2.343688 2.033985 1.013719
v 2.407423 2.028703 -1.015315
v 0.953044 2.028703 -1.015315
v 2.407420 2.028703 1.015316
v 0.953041 2.028703 1.015316
v -0.816165 -0.626476 -1.107750
v -0.816164 -1.804008 -1.107750
v 0.739127 -1.752616 -1.084594
v 0.739127 -0.677869 -1.084594
v -0.815225 -0.677869 -1.084594
v -2.340103 -0.677869 -1.084594
v -2.340102 -1.752616 -1.084594
v -0.815225 -1.752616 -1.084594
v 0.938906 -1.765371 -1.076812
v 0.938906 -0.665114 -1.076812
v 2.421560 -0.665114 -1.076812
v 2.421559 -1.765371 -1.076812
v -2.699783 -1.752460 1.010764
v -2.699783 -0.678024 1.010764
v -2.699781 -1.752460 -1.010764
v -2.699782 -0.678024 -1.010764
v 2.728071 -1.766029 -1.036292
v 2.728072 -0.664456 -1.036291
v 2.728071 -1.766029 1.036292
v 2.728070 -0.664456 1.036292
v 2.399875 -0.681205 1.123621
v 0.960588 -0.681205 1.123621
v 0.960589 -1.749280 1.123621
v 2.399875 -1.749280 1.123621
v 0.726504 -0.682438 1.108476
v -2.326543 -0.682438 1.108476
v 0.726505 -1.748047 1.108476
v -2.326542 -1.748047 1.108476
v 0.822573 -0.226365 -0.929757
v 0.822573 1.452188 -0.929757
v 0.822573 -0.226365 0.776026
v 0.822573 1.452188 0.776027
v 0.924165 -0.212311 -0.929757
v 0.924165 1.438135 -0.929757
v 0.924165 -0.212311 0.786243
v 0.924165 1.438135 0.786243
v -2.456876 -0.271848 -0.976510
v -2.456876 1.497672 -0.976510
v -2.456876 -0.271848 0.821716
v -2.456876 1.497671 0.821716
v 2.461438 -0.280025 -0.999629
v 2.461438 1.505849 -0.999629
v 2.461438 -0.280025 0.857178
v 2.461438 1.505849 0.857179
v 0.679224 -0.343432 -1.022881
v -2.279260 -0.343432 -1.022882
v 0.679224 -0.343432 0.868088
v -2.279260 -0.343432 0.868087
v 2.364169 -0.306696 -1.022154
v 0.996297 -0.306696 -1.022155
v 2.364169 -0.306696 0.879703
v 0.996297 -0.306696 0.879703
v 2.317765 -2.005999 -1.028639
v 0.844301 -2.005999 -1.028639
v 2.317765 -2.005999 1.028639
v 0.844301 -2.005999 1.028638
v -2.288476 -2.005999 -1.028639
v -2.288477 -2.005999 1.028638
v 0.943092 0.910830 0.942551
v 2.404302 0.910830 0.942551
v 0.943092 1.131954 -0.942101
v 2.404302 1.131954 -0.942101
v 0.943092 0.494708 0.942551
v 2.404302 0.494708 0.942551
v 0.943092 0.715831 -0.942101
v 2.404302 0.715831 -0.942101
v 0.943092 0.161809 0.942551
v 2.404302 0.161809 0.942551
v 0.943092 0.382933 -0.942101
v 2.404302 0.382933 -0.942101
vt 0.000000 0.000000
vt 0.000000 0.000000
vt 0.000000 0.000000
vt 0.000000 0.000000
vt 0.000000 0.000000
vt 0.000000 0.000000
vt 0.000000 0.000000
vt 0.000000 0.000000
vt 0.000000 0.000000
vt 0.000000 0.000000
vt 0.000000 0.000000
vt 0.000000 0.000000
vt 0.000000 0.000000
vt 0.000000 0.000000
vt 0.000000 0.000000
vt 0.000000 0.000000
vt 0.000000 0.000000
vt 0.000000 0.000000
vt 0.000000 0.000000
vt 0.000000 0.000000
vt 0.000000 0.000000
vt 0.000000 0.000000
vt 0.000000 0.000000
vt 0.000000 0.000000
vt 0.000000 0.000000
vt 0.000000 0.000000
vt 0.000000 0.000000
vt 0.000000 0.000000
vt 0.000000 0.000000
vt 0.000000 0.000000
vt 0.000000 0.000000
vt 0.000000 0.000000
vt 0.000000 0.000000
vt 0.000000 0.000000
vt 0.000000 0.000000
vt 0.000000 0.000000
vt 0.000000 0.000000
vt 0.000000 0.000000
vt 0.000000 0.000000
vt 0.000000 0.000000
vt 0.000000 0.000000
vt 0.000000 0.000000
vt 0.000000 0.000000
vt 0.000000 0.000000
vt 0.000000 0.000000
vt 0.000000 0.000000
vt 0.000000 0.000000
vt 0.000000 0.000000
vt 0.000000 0.000000
vt 0.000000 0.000000
vt 0.000000 0.000000
vt 0.000000 0.000000
vt 0.000000 0.000000
vt 0.000000 0.000000
vt 0.000000 0.000000
vt 0.000000 0.000000
vt 0.000000 0.000000
vt 0.000000 0.000000
vt 0.000000 0.000000
vt 0.000000 0.000000
vt 0.000000 0.000000
vt 0.000000 0.000000
vt 0.000000 0.000000
vt 0.000000 0.000000
vt 0.000000 0.000000
vt 0.000000 0.000000
vt 0.000000 0.000000
vt 0.000000 0.000000
vt 0.000000 0.000000
vt 0.000000 0.000000
vt 0.000000 0.000000
vt 0.000000 0.000000
vt 0.000000 0.000000
vt 0.000000 0.000000
vt 0.000000 0.000000
vt 0.000000 0.000000
vt 0.000000 0.000000
vt 0.000000 0.000000
vt 0.000000 0.000000
vt 0.000000 0.000000
vt 0.000000 0.000000
vt 0.000000 0.000000
vt 0.000000 0.000000
vt 0.000000 0.000000
vt 0.000000 0.000000
vt 0.000000 0.000000
vt 0.000000 0.000000
vt 0.000000 0.000000
vt 0.000000 0.000000
vt 0.000000 0.000000
vt 0.000000 0.000000
vt 0.000000 0.000000
vt 0.000000 0.000000
vt 0.000000 0.000000
vt 0.000000 0.000000
vt 0.000000 0.000000
vt 0.000000 0.000000
vt 0.000000 0.000000
vt 0.000000 0.000000
vt 0.000000 0.000000
vt 0.000000 0.000000
vt 0.000000 0.000000
vt 0.000000 0.000000
vt 0.000000 0.000000
vt 0.000000 0.000000
vt 0.000000 0.000000
vt 0.000000 0.000000
vt 0.000000 0.000000
vt 0.000000 0.000000
vt 0.000000 0.000000
vt 0.000000 0.000000
vt 0.000000 0.000000
vt 0.000000 0.000000
vt 0.000000 0.000000
vt 0.000000 0.000000
vt 0.000000 0.000000
vt 0.000000 0.000000
vt 0.000000 0.000000
vt 0.000000 0.000000
vt 0.000000 0.000000
vt 0.000000 0.000000
vt 0.000000 0.000000
vt 0.000000 0.000000
vt 0.000000 0.000000
vt 0.000000 0.000000
vt 0.000000 0.000000
vt 0.000000 0.000000
vt 0.000000 0.000000
vt 0.000000 0.000000
vt 0.000000 0.000000
vt 0.000000 0.000000
vt 0.000000 0.000000
vt 0.000000 0.000000
vt 0.999706 -0.000727
vt 1.000182 0.303535
vt 0.000294 0.305100
vt -0.000182 0.000838
vt 0.000000 0.000000
vt 0.000000 0.000000
vt 0.000000 0.000000
vt 0.000000 0.000000
vt 0.000000 0.000000
vt 0.000000 0.000000
vt 0.999930 0.000070
vt 0.999930 0.483920
vt 0.000070 0.483920
vt 0.000070 0.000070
vt 0.000000 0.000000
vt 0.000000 0.000000
vt 0.000000 0.000000
vt 0.000000 0.000000
vt 0.000000 0.000000
vt 0.000000 0.000000
vt 0.000000 0.000000
vt 0.000000 0.000000
vt 0.000000 0.000000
vt 0.000000 0.000000
vt 0.000000 0.000000
vt 0.000000 0.000000
vt 0.000000 0.000000
vt 0.000000 0.000000
vt 0.000000 0.000000
vt 0.000000 0.000000
vt 0.000000 0.000000
vt 0.000000 0.000000
vt 0.000000 0.000000
vt 0.000000 0.000000
vt 0.000000 0.000000
vt 0.000000 0.000000
vt 0.000000 0.000000
vt 0.000000 0.000000
vt 0.000000 0.000000
vt 0.000000 0.000000
vt 0.000000 0.000000
vt 0.000000 0.000000
vt 0.000000 0.000000
vt 0.000000 0.000000
vt 0.000000 0.000000
vt 0.000000 0.000000
vt 0.000000 0.000000
vt 0.000000 0.000000
vt 0.000000 0.000000
vt 0.000000 0.000000
vt 0.000000 0.000000
vn 0.0000 -1.0000 -0.0000
vn 0.0000 1.0000 0.0000
vn 1.0000 0.0000 0.0000
vn 0.0000 0.0000 1.0000
vn -1.0000 0.0000 -0.0000
vn 0.0000 0.0000 -1.0000
vn 0.8172 0.5764 0.0000
vn 0.0000 -0.7435 -0.6687
vn -0.0000 0.2785 0.9604
vn 0.8436 -0.0000 -0.5370
vn -0.9846 -0.0000 -0.1746
vn -0.4216 -0.0000 0.9068
vn -0.9136 -0.0000 0.4067
vn 0.8978 0.4403 0.0000
vn -0.0000 0.4185 0.9082
vn -0.0000 -0.0130 0.9999
vn -0.0000 0.6882 0.7256
vn -0.3376 -0.9413 -0.0000
vn 0.0000 -0.4108 -0.9117
vn 0.5108 0.0000 -0.8597
vn 0.9463 0.0000 0.3233
vn -0.9982 -0.0604 -0.0000
vn -0.9496 0.0000 0.3136
vn 0.9981 -0.0614 0.0000
vn -0.2784 -0.0000 0.9605
vn -0.0000 -0.4185 0.9082
vn 0.2784 0.0000 0.9605
vn 0.4216 0.0000 0.9068
vn 0.0000 0.3284 0.9446
vn -0.0000 -0.3284 0.9446
vn 0.8978 -0.4403 0.0000
vn 0.9051 -0.0000 0.4252
vn 0.9051 0.0000 -0.4252
vn -0.9068 0.4215 -0.0000
vn -0.9068 -0.4215 -0.0000
vn -0.9136 -0.0000 -0.4067
vn 0.0000 0.6882 -0.7256
vn -0.5692 0.8222 -0.0000
vn 0.5692 0.8222 0.0000
vn -0.0000 0.7017 0.7125
vn 0.0000 0.7017 -0.7125
vn -0.8172 0.5764 -0.0000
vn 0.1558 0.0000 -0.9878
vn 0.0000 0.4108 -0.9117
vn -0.1549 0.0000 -0.9879
vn -0.5108 0.0000 -0.8597
vn 0.0000 -0.6250 -0.7806
vn 0.0000 0.6250 -0.7806
vn -0.9486 0.3165 -0.0000
vn -0.9846 -0.0000 0.1746
vn -0.9486 -0.3165 -0.0000
vn 0.6409 -0.7676 0.0000
vn 0.6409 0.7676 0.0000
vn 0.8436 0.0000 0.5370
vn -0.2104 -0.0000 0.9776
vn 0.0000 -0.2785 0.9604
vn 0.2104 -0.0000 0.9776
vn 0.0045 -0.0000 1.0000
vn -0.0045 0.0000 1.0000
vn -0.0000 0.0130 0.9999
vn -0.9982 0.0000 -0.0596
vn -0.9982 -0.0000 0.0593
vn 0.9983 -0.0000 -0.0589
vn 0.9982 -0.0000 0.0593
vn 0.9981 0.0614 0.0000
vn -0.9982 0.0604 -0.0000
vn 0.9463 0.0000 -0.3233
vn 0.9447 -0.3280 0.0000
vn 0.9447 0.3280 0.0000
vn -0.9496 0.0000 -0.3136
vn -0.9458 0.3247 0.0000
vn -0.9458 -0.3247 0.0000
vn -0.0000 0.8276 0.5613
vn -0.0000 0.7421 0.6703
vn -0.0000 -0.7435 0.6687
vn 0.4153 -0.9097 0.0000
vn -0.3977 0.9175 0.0000
vn 0.7823 0.6229 0.0000
vn 0.0000 0.8276 -0.5613
vn 0.3977 0.9175 0.0000
vn 0.0000 0.7421 -0.6703
vn -0.7823 0.6229 0.0000
vn 0.0000 0.9932 0.1165
usemtl uv_kayu
s off
f 81/1/21 82/2/21 43/3/21 44/4/21
f 83/5/22 48/6/22 47/7/22 84/8/22
f 65/9/23 45/10/23 46/11/23 66/12/23
f 90/13/24 84/8/24 47/7/24 67/14/24
f 67/14/25 47/7/25 48/6/25 68/15/25
f 100/16/26 81/1/26 44/4/26 95/17/26
f 89/18/26 85/19/26 52/20/26 68/15/26
f 61/21/25 51/22/25 52/20/25 62/23/25
f 87/24/24 86/25/24 51/22/24 61/21/24
f 59/26/23 49/27/23 50/28/23 60/29/23
f 78/30/24 76/31/24 58/32/24 63/33/24
f 69/34/24 80/35/24 104/36/24 103/37/24
f 98/38/26 71/39/26 53/40/26 96/41/26
f 79/42/24 74/43/24 56/44/24 70/45/24
f 74/43/27 73/46/27 143/47/27 145/48/27
f 81/1/28 53/40/28 200/49/28 203/50/28
f 75/51/26 77/52/26 64/53/26 57/54/26
f 78/30/29 63/33/29 168/55/29 167/56/29
f 92/57/30 59/26/30 164/58/30 163/59/30
f 99/60/24 87/24/24 61/21/24 94/61/24
f 62/23/31 95/17/31 161/62/31 162/63/31
f 85/19/26 88/64/26 62/23/26 52/20/26
f 76/31/32 79/42/32 130/65/32 127/66/32
f 73/46/26 80/35/26 69/34/26 55/67/26
f 83/5/26 89/18/26 68/15/26 48/6/26
f 68/15/33 52/20/33 136/68/33 138/69/33
f 86/25/24 90/13/24 67/14/24 51/22/24
f 50/28/34 49/27/34 131/70/34 132/71/34
f 45/10/26 65/9/26 80/35/26 73/46/26
f 50/28/24 66/12/24 79/42/24 76/31/24
f 93/72/24 60/29/24 78/30/24 97/73/24
f 49/27/26 59/26/26 77/52/26 75/51/26
f 41/74/21 42/75/21 72/76/21 71/39/21
f 45/10/22 73/46/22 74/43/22 46/11/22
f 66/12/24 46/11/24 74/43/24 79/42/24
f 92/57/26 41/74/26 71/39/26 98/38/26
f 65/9/26 49/27/26 75/51/26 80/35/26
f 60/29/24 50/28/24 76/31/24 78/30/24
f 86/25/35 58/32/35 124/77/35 125/78/35
f 55/67/26 69/34/26 89/18/26 83/5/26
f 57/54/26 64/53/26 147/79/26 88/64/26 85/19/26
f 99/60/36 91/80/36 173/81/36 174/82/36
f 63/33/24 58/32/24 86/25/24 87/24/24
f 85/19/24 89/18/24 106/83/24 105/84/24
f 96/41/26 53/40/26 81/1/26 100/16/26 148/85/26
f 70/45/24 56/44/24 84/8/24 90/13/24
f 84/8/37 56/44/37 140/86/37 142/87/37
f 82/2/38 81/1/38 203/50/38 204/88/38
f 147/79/39 64/53/39 150/89/39 151/90/39
f 54/91/24 91/80/24 99/60/24 82/2/24
f 59/26/26 92/57/26 98/38/26 77/52/26
f 42/75/24 93/72/24 97/73/24 72/76/24
f 43/3/25 94/61/25 95/17/25 44/4/25
f 82/2/24 99/60/24 94/61/24 43/3/24
f 41/74/23 92/57/23 93/72/23 42/75/23
f 72/76/24 97/73/24 91/80/24 54/91/24
f 96/41/40 64/53/40 156/92/40 155/93/40
f 88/64/26 100/16/26 95/17/26 62/23/26
f 104/36/26 101/94/26 115/95/26 118/96/26
f 102/97/26 105/84/26 109/98/26 107/99/26
f 89/18/24 69/34/24 103/37/24 106/83/24
f 75/51/24 57/54/24 102/97/24 101/94/24
f 57/54/24 85/19/24 105/84/24 102/97/24
f 80/35/24 75/51/24 101/94/24 104/36/24
f 109/98/41 110/100/41 184/101/41 183/102/41
f 106/83/26 103/37/26 108/103/26 110/100/26
f 103/37/26 102/97/26 107/99/26 108/103/26
f 105/84/26 106/83/26 110/100/26 109/98/26
f 112/104/42 108/103/42 176/105/42 178/106/42
f 110/100/21 108/103/21 112/104/21 114/107/21
f 118/96/43 115/95/43 187/108/43 188/109/43
f 101/94/26 102/97/26 116/110/26 115/95/26
f 102/97/26 103/37/26 117/111/26 116/110/26
f 103/37/26 104/36/26 118/96/26 117/111/26
f 117/111/44 121/112/44 182/113/44 180/114/44
f 117/111/21 118/96/21 122/115/21 121/112/21
f 58/32/45 70/45/45 123/116/45 124/77/45
f 70/45/46 90/13/46 126/117/46 123/116/46
f 90/13/47 86/25/47 125/78/47 126/117/47
f 70/45/48 58/32/48 128/118/48 129/119/48
f 58/32/49 76/31/49 127/66/49 128/118/49
f 79/42/50 70/45/50 129/119/50 130/65/50
f 65/9/51 66/12/51 134/120/51 133/121/51
f 49/27/52 65/9/52 133/121/52 131/70/52
f 66/12/53 50/28/53 132/71/53 134/120/53
f 52/20/54 51/22/54 135/122/54 136/68/54
f 67/14/55 68/15/55 138/69/55 137/123/55
f 51/22/56 67/14/56 137/123/56 135/122/56
f 139/124/22 141/125/22 142/87/22 140/86/22
f 55/67/57 83/5/57 141/125/57 139/124/57
f 83/5/58 84/8/58 142/87/58 141/125/58
f 56/44/59 55/67/59 139/124/59 140/86/59
f 143/47/22 144/126/22 146/127/22 145/48/22
f 56/44/60 74/43/60 145/48/60 146/127/60
f 73/46/61 55/67/61 144/126/61 143/47/61
f 55/67/62 56/44/62 146/127/62 144/126/62
f 150/89/26 149/128/26 154/129/26 151/90/26
f 88/64/39 147/79/39 151/90/39 152/130/39
f 151/90/26 154/129/26 153/131/26 152/130/26
f 100/16/63 88/64/63 152/130/63 153/131/63
f 96/41/64 148/85/64 154/129/64 149/128/64
f 64/53/65 96/41/65 149/128/65 150/89/65
f 148/85/64 100/16/64 153/131/64 154/129/64
f 157/132/26 158/133/26 155/93/26 156/92/26
f 77/52/66 98/38/66 158/133/66 157/132/66
f 64/53/67 77/52/67 157/132/67 156/92/67
f 98/38/68 96/41/68 155/93/68 158/133/68
f 159/134/25 160/135/25 162/136/25 161/137/25
f 61/21/69 62/23/69 162/63/69 160/138/69
f 94/61/70 61/21/70 160/138/70 159/139/70
f 95/17/71 94/61/71 159/139/71 161/62/71
f 163/59/23 164/58/23 166/140/23 165/141/23
f 93/72/72 92/57/72 163/59/72 165/141/72
f 59/26/73 60/29/73 166/140/73 164/58/73
f 60/29/74 93/72/74 165/141/74 166/140/74
f 170/142/24 167/56/24 168/55/24 169/143/24
f 63/33/75 91/80/75 169/143/75 168/55/75
f 91/80/76 97/73/76 170/142/76 169/143/76
f 97/73/77 78/30/77 167/56/77 170/142/77
f 173/144/24 171/145/24 172/146/24 174/147/24
f 91/80/78 63/33/78 171/148/78 173/81/78
f 87/24/79 99/60/79 174/82/79 172/149/79
f 63/33/80 87/24/80 172/149/80 171/148/80
f 111/150/81 112/104/81 178/106/81 177/151/81
f 108/103/82 107/99/82 175/152/82 176/105/82
f 121/112/83 120/153/83 181/154/83 182/113/83
f 116/110/84 117/111/84 180/114/84 179/155/84
f 120/153/85 116/110/85 179/155/85 181/154/85
f 107/99/86 111/150/86 177/151/86 175/152/86
f 114/107/87 113/156/87 185/157/87 186/158/87
f 110/100/88 114/107/88 186/158/88 184/101/88
f 113/156/89 109/98/89 183/102/89 185/157/89
f 119/159/90 122/115/90 190/160/90 189/161/90
f 115/95/91 119/159/91 189/161/91 187/108/91
f 122/115/92 118/96/92 188/109/92 190/160/92
f 113/156/93 111/150/93 193/162/93 194/163/93
f 120/153/94 119/159/94 197/164/94 198/165/94
f 199/166/21 201/167/21 202/168/21 200/49/21
f 200/49/21 202/168/21 204/88/21 203/50/21
f 53/40/28 71/39/28 199/166/28 200/49/28
f 54/91/95 82/2/95 204/88/95 202/168/95
f 72/76/95 54/91/95 202/168/95 201/167/95
f 71/39/96 72/76/96 201/167/96 199/166/96
usemtl uv_seng
f 109/98/97 113/156/97 194/163/97 192/169/97
f 119/159/98 115/95/98 195/170/98 197/164/98
f 191/171/22 192/169/22 194/163/22 193/162/22
f 107/99/99 109/98/99 192/169/99 191/171/99
f 111/150/100 107/99/100 191/171/100 193/162/100
f 195/170/22 196/172/22 198/165/22 197/164/22
f 115/95/101 116/110/101 196/172/101 195/170/101
f 116/110/102 120/153/102 198/165/102 196/172/102
f 205/173/103 206/174/103 208/175/103 207/176/103
f 209/177/103 210/178/103 212/179/103 211/180/103
f 213/181/103 214/182/103 216/183/103 215/184/103
usemtl col_kaca
f 112/104/26 111/150/26 113/156/26 114/107/26
f 122/115/26 119/159/26 120/153/26 121/112/26
f 124/77/24 123/116/24 126/117/24 125/78/24
f 127/66/24 130/65/24 129/119/24 128/118/24
f 131/70/23 133/121/23 134/120/23 132/71/23
f 135/122/25 137/123/25 138/69/25 136/68/25
f 176/105/25 175/152/25 177/151/25 178/106/25
f 179/155/23 180/114/23 182/113/23 181/154/23
f 183/102/23 184/101/23 186/158/23 185/157/23
f 188/109/25 187/108/25 189/161/25 190/160/25
